<svg width="116" height="32" viewBox="0 0 116 32" fill="none" xmlns="http://www.w3.org/2000/svg">
<path d="M0.32 28V-1.90735e-06H12.44C14.9467 -1.90735e-06 17.1067 0.413332 18.92 1.24C20.7333 2.04 22.1333 3.2 23.12 4.72C24.1067 6.24 24.6 8.05333 24.6 10.16C24.6 12.24 24.1067 14.04 23.12 15.56C22.1333 17.0533 20.7333 18.2 18.92 19C17.1067 19.8 14.9467 20.2 12.44 20.2H3.92L6.8 17.36V28H0.32ZM18.12 28L11.12 17.84H18.04L25.12 28H18.12ZM6.8 18.08L3.92 15.04H12.08C14.08 15.04 15.5733 14.6133 16.56 13.76C17.5467 12.88 18.04 11.68 18.04 10.16C18.04 8.61333 17.5467 7.41333 16.56 6.56C15.5733 5.70667 14.08 5.28 12.08 5.28H3.92L6.8 2.2V18.08ZM29.7341 28V-1.90735e-06H35.0941L47.0141 19.76H44.1741L55.8941 -1.90735e-06H61.2141L61.2941 28H55.2141L55.1741 9.32H56.2941L46.9341 25.04H44.0141L34.4541 9.32H35.8141V28H29.7341Z" fill="#121214"/>
<path d="M71.6093 31.104V16.128H75.9453V18.08H74.1053V29.152H75.9453V31.104H71.6093ZM76.0279 28L81.0199 16.8H83.5799L88.5879 28H85.8679L81.7719 18.112H82.7959L78.6839 28H76.0279ZM78.5239 25.6L79.2119 23.632H84.9719L85.6759 25.6H78.5239ZM94.6619 28.128C93.9365 28.128 93.3019 27.968 92.7579 27.648C92.2139 27.328 91.7872 26.8427 91.4779 26.192C91.1792 25.5307 91.0299 24.6987 91.0299 23.696C91.0299 22.6827 91.1739 21.8507 91.4619 21.2C91.7499 20.5493 92.1659 20.064 92.7099 19.744C93.2539 19.424 93.9045 19.264 94.6619 19.264C95.4725 19.264 96.1979 19.4507 96.8379 19.824C97.4885 20.1867 98.0005 20.6987 98.3739 21.36C98.7579 22.0213 98.9499 22.8 98.9499 23.696C98.9499 24.6027 98.7579 25.3867 98.3739 26.048C98.0005 26.7093 97.4885 27.2213 96.8379 27.584C96.1979 27.9467 95.4725 28.128 94.6619 28.128ZM89.5739 31.104V19.392H91.9579V21.152L91.9099 23.712L92.0699 26.256V31.104H89.5739ZM94.2299 26.08C94.6459 26.08 95.0139 25.984 95.3339 25.792C95.6645 25.6 95.9259 25.328 96.1179 24.976C96.3205 24.6133 96.4219 24.1867 96.4219 23.696C96.4219 23.1947 96.3205 22.768 96.1179 22.416C95.9259 22.064 95.6645 21.792 95.3339 21.6C95.0139 21.408 94.6459 21.312 94.2299 21.312C93.8139 21.312 93.4405 21.408 93.1099 21.6C92.7792 21.792 92.5179 22.064 92.3259 22.416C92.1339 22.768 92.0379 23.1947 92.0379 23.696C92.0379 24.1867 92.1339 24.6133 92.3259 24.976C92.5179 25.328 92.7792 25.6 93.1099 25.792C93.4405 25.984 93.8139 26.08 94.2299 26.08ZM105.709 28.128C104.983 28.128 104.349 27.968 103.805 27.648C103.261 27.328 102.834 26.8427 102.525 26.192C102.226 25.5307 102.077 24.6987 102.077 23.696C102.077 22.6827 102.221 21.8507 102.509 21.2C102.797 20.5493 103.213 20.064 103.757 19.744C104.301 19.424 104.951 19.264 105.709 19.264C106.519 19.264 107.245 19.4507 107.885 19.824C108.535 20.1867 109.047 20.6987 109.421 21.36C109.805 22.0213 109.997 22.8 109.997 23.696C109.997 24.6027 109.805 25.3867 109.421 26.048C109.047 26.7093 108.535 27.2213 107.885 27.584C107.245 27.9467 106.519 28.128 105.709 28.128ZM100.621 31.104V19.392H103.005V21.152L102.957 23.712L103.117 26.256V31.104H100.621ZM105.277 26.08C105.693 26.08 106.061 25.984 106.381 25.792C106.711 25.6 106.973 25.328 107.165 24.976C107.367 24.6133 107.469 24.1867 107.469 23.696C107.469 23.1947 107.367 22.768 107.165 22.416C106.973 22.064 106.711 21.792 106.381 21.6C106.061 21.408 105.693 21.312 105.277 21.312C104.861 21.312 104.487 21.408 104.157 21.6C103.826 21.792 103.565 22.064 103.373 22.416C103.181 22.768 103.085 23.1947 103.085 23.696C103.085 24.1867 103.181 24.6133 103.373 24.976C103.565 25.328 103.826 25.6 104.157 25.792C104.487 25.984 104.861 26.08 105.277 26.08ZM115.076 31.104H110.756V29.152H112.58V18.08H110.756V16.128H115.076V31.104Z" fill="#BBEC00"/>
</svg>
